<svg width="512" height="512" viewBox="0 0 512 512" fill="none" xmlns="http://www.w3.org/2000/svg" role="img" aria-labelledby="title desc">
  <title id="title">Apple Container Operator control desk icon candidate</title>
  <desc id="desc">A clean container icon managed from an external operator control desk.</desc>
  <defs>
    <linearGradient id="containerShell" x1="180" y1="78" x2="416" y2="356" gradientUnits="userSpaceOnUse">
      <stop stop-color="#F7F9FC"/>
      <stop offset="0.52" stop-color="#B8C0CE"/>
      <stop offset="1" stop-color="#707A8C"/>
    </linearGradient>
    <linearGradient id="containerSlot" x1="221" y1="0" x2="372" y2="0" gradientUnits="userSpaceOnUse">
      <stop stop-color="#FFFFFF"/>
      <stop offset="1" stop-color="#D6DCE7"/>
    </linearGradient>
    <linearGradient id="deskFace" x1="94" y1="281" x2="372" y2="424" gradientUnits="userSpaceOnUse">
      <stop stop-color="#465163"/>
      <stop offset="1" stop-color="#242C39"/>
    </linearGradient>
    <linearGradient id="deskTop" x1="117" y1="244" x2="394" y2="326" gradientUnits="userSpaceOnUse">
      <stop stop-color="#F8FAFD"/>
      <stop offset="1" stop-color="#B9C2D0"/>
    </linearGradient>
    <filter id="softShadow" x="52" y="54" width="400" height="398" filterUnits="userSpaceOnUse" color-interpolation-filters="sRGB">
      <feFlood flood-opacity="0" result="BackgroundImageFix"/>
      <feColorMatrix in="SourceAlpha" type="matrix" values="0 0 0 0 0 0 0 0 0 0 0 0 0 0 0 0 0 0 127 0" result="hardAlpha"/>
      <feOffset dy="10"/>
      <feGaussianBlur stdDeviation="14"/>
      <feComposite in2="hardAlpha" operator="out"/>
      <feColorMatrix type="matrix" values="0 0 0 0 0.12 0 0 0 0 0.15 0 0 0 0 0.2 0 0 0 0.18 0"/>
      <feBlend mode="normal" in2="BackgroundImageFix" result="effect1_dropShadow"/>
      <feBlend mode="normal" in="SourceGraphic" in2="effect1_dropShadow" result="shape"/>
    </filter>
  </defs>

  <circle cx="256" cy="256" r="224" fill="#F3F5F8"/>
  <path d="M90 416H420" stroke="#C8CED8" stroke-width="18" stroke-linecap="round"/>

  <g filter="url(#softShadow)">
    <rect x="168" y="76" width="244" height="244" rx="56" fill="#293140" opacity="0.14"/>
    <rect x="156" y="64" width="244" height="244" rx="56" fill="url(#containerShell)"/>
    <rect x="169" y="77" width="218" height="218" rx="42" stroke="#FFFFFF" stroke-opacity="0.48" stroke-width="3"/>
    <rect x="211" y="112" width="134" height="38" rx="19" fill="url(#containerSlot)" stroke="#FFFFFF" stroke-width="4"/>
    <rect x="211" y="174" width="134" height="38" rx="19" fill="url(#containerSlot)" stroke="#FFFFFF" stroke-opacity="0.94" stroke-width="4"/>
    <rect x="211" y="236" width="134" height="38" rx="19" fill="url(#containerSlot)" stroke="#FFFFFF" stroke-opacity="0.86" stroke-width="4"/>
    <circle cx="361" cy="131" r="15" fill="#F8FAFD"/>
    <circle cx="361" cy="193" r="15" fill="#EFF3F8"/>
    <circle cx="361" cy="255" r="15" fill="#E4EAF2"/>
  </g>

  <path d="M142 249C160 222 189 205 224 201" stroke="#6D7789" stroke-width="8" stroke-linecap="round"/>
  <path d="M360 327C330 357 290 371 241 367" stroke="#6D7789" stroke-width="8" stroke-linecap="round"/>
  <circle cx="224" cy="201" r="11" fill="#F3F5F8" stroke="#5F697A" stroke-width="7"/>
  <circle cx="241" cy="367" r="11" fill="#F3F5F8" stroke="#5F697A" stroke-width="7"/>

  <path d="M114 271L355 271L399 326L70 326L114 271Z" fill="url(#deskTop)"/>
  <path d="M114 271H355L399 326H70L114 271Z" stroke="#FFFFFF" stroke-opacity="0.75" stroke-width="4" stroke-linejoin="round"/>
  <path d="M70 326H399L371 420H98L70 326Z" fill="url(#deskFace)"/>
  <path d="M98 420H371" stroke="#171D27" stroke-opacity="0.2" stroke-width="8" stroke-linecap="round"/>

  <rect x="118" y="294" width="130" height="14" rx="7" fill="#EEF2F7"/>
  <rect x="266" y="292" width="31" height="18" rx="9" fill="#90A0B7"/>
  <rect x="310" y="292" width="31" height="18" rx="9" fill="#90A0B7"/>
  <circle cx="132" cy="359" r="13" fill="#A7B3C5"/>
  <circle cx="176" cy="359" r="13" fill="#52B8A8"/>
  <circle cx="220" cy="359" r="13" fill="#A7B3C5"/>
  <rect x="265" y="348" width="74" height="22" rx="11" fill="#E7ECF3"/>
  <path d="M283 386H329" stroke="#8E9AAB" stroke-width="10" stroke-linecap="round"/>

  <path d="M146 249L128 293" stroke="#4F5A6B" stroke-width="7" stroke-linecap="round"/>
  <path d="M360 327L329 300" stroke="#4F5A6B" stroke-width="7" stroke-linecap="round"/>
  <circle cx="142" cy="249" r="12" fill="#52B8A8" stroke="#F3F5F8" stroke-width="5"/>
  <circle cx="360" cy="327" r="12" fill="#52B8A8" stroke="#F3F5F8" stroke-width="5"/>
</svg>
