<svg width="512" height="512" viewBox="0 0 512 512" fill="none" xmlns="http://www.w3.org/2000/svg" role="img" aria-labelledby="title desc">
  <title id="title">Apple Container Operator icon</title>
  <desc id="desc">A calm operator panel showing resolved container tasks.</desc>
  <defs>
    <linearGradient id="panel" x1="112" y1="54" x2="400" y2="458" gradientUnits="userSpaceOnUse">
      <stop stop-color="#F2F5FA"/>
      <stop offset="0.52" stop-color="#A7B0C2"/>
      <stop offset="1" stop-color="#687286"/>
    </linearGradient>
    <linearGradient id="slot" x1="126" y1="0" x2="386" y2="0" gradientUnits="userSpaceOnUse">
      <stop stop-color="#F9FBFF"/>
      <stop offset="1" stop-color="#C7CEDC"/>
    </linearGradient>
  </defs>

  <rect x="58" y="64" width="396" height="396" rx="88" fill="#2F3848" opacity="0.18"/>
  <rect x="58" y="48" width="396" height="396" rx="88" fill="url(#panel)"/>
  <rect x="74" y="64" width="364" height="364" rx="72" stroke="#FFFFFF" stroke-opacity="0.34" stroke-width="3"/>

  <rect x="116" y="112" width="280" height="62" rx="31" fill="url(#slot)" stroke="#FFFFFF" stroke-width="4"/>
  <rect x="116" y="210" width="280" height="62" rx="31" fill="url(#slot)" stroke="#FFFFFF" stroke-opacity="0.9" stroke-width="4"/>
  <rect x="116" y="308" width="280" height="62" rx="31" fill="#F8FAFF" stroke="#FFFFFF" stroke-width="4"/>

  <path d="M150 337L169 351L150 365" stroke="#394255" stroke-width="12" stroke-linecap="round" stroke-linejoin="round"/>
  <path d="M196 352H254" stroke="#394255" stroke-width="12" stroke-linecap="round"/>

  <circle cx="360" cy="143" r="24" fill="#F7F9FF"/>
  <circle cx="360" cy="241" r="24" fill="#F7F9FF"/>
  <circle cx="360" cy="339" r="28" fill="#FFFFFF"/>
  <circle cx="360" cy="143" r="32" stroke="#657087" stroke-opacity="0.13" stroke-width="10"/>
  <circle cx="360" cy="241" r="32" stroke="#657087" stroke-opacity="0.13" stroke-width="10"/>
  <circle cx="360" cy="339" r="38" stroke="#394255" stroke-opacity="0.16" stroke-width="10"/>

  <path d="M336 339L354 357L386 321" stroke="#1F9D72" stroke-width="16" stroke-linecap="round" stroke-linejoin="round"/>

  <path d="M170 143H276" stroke="#7D879A" stroke-width="12" stroke-linecap="round" opacity="0.52"/>
  <path d="M170 241H276" stroke="#7D879A" stroke-width="12" stroke-linecap="round" opacity="0.52"/>
</svg>
