<svg width="512" height="512" viewBox="0 0 512 512" fill="none" xmlns="http://www.w3.org/2000/svg" role="img" aria-labelledby="title desc">
  <title id="title">Apple Container Operator icon</title>
  <desc id="desc">A simple operator holding an Apple container-style runtime icon.</desc>
  <defs>
    <linearGradient id="containerPanel" x1="214" y1="102" x2="420" y2="392" gradientUnits="userSpaceOnUse">
      <stop stop-color="#EEF2FA"/>
      <stop offset="0.5" stop-color="#A9B2C4"/>
      <stop offset="1" stop-color="#6B7488"/>
    </linearGradient>
    <linearGradient id="slot" x1="238" y1="0" x2="395" y2="0" gradientUnits="userSpaceOnUse">
      <stop stop-color="#F9FBFF"/>
      <stop offset="1" stop-color="#C9D0DE"/>
    </linearGradient>
  </defs>

  <circle cx="256" cy="256" r="222" fill="#F5F7FB"/>

  <path d="M121 420C134 344 184 304 252 304C320 304 370 344 383 420" fill="#D9DEE8"/>
  <rect x="111" y="236" width="104" height="184" rx="52" fill="#3E4658"/>
  <circle cx="163" cy="188" r="49" fill="#3E4658"/>
  <circle cx="179" cy="176" r="13" fill="#F5F7FB" opacity="0.9"/>

  <rect x="202" y="96" width="252" height="252" rx="58" fill="#2F3848" opacity="0.16"/>
  <rect x="190" y="84" width="252" height="252" rx="58" fill="url(#containerPanel)"/>
  <rect x="202" y="96" width="228" height="228" rx="44" stroke="#FFFFFF" stroke-opacity="0.35" stroke-width="3"/>

  <rect x="230" y="128" width="166" height="46" rx="23" fill="url(#slot)" stroke="#FFFFFF" stroke-width="4"/>
  <rect x="230" y="196" width="166" height="46" rx="23" fill="url(#slot)" stroke="#FFFFFF" stroke-opacity="0.92" stroke-width="4"/>
  <rect x="230" y="264" width="166" height="46" rx="23" fill="url(#slot)" stroke="#FFFFFF" stroke-opacity="0.84" stroke-width="4"/>

  <circle cx="369" cy="151" r="18" fill="#F8FAFF"/>
  <circle cx="369" cy="219" r="18" fill="#EEF3FF"/>
  <circle cx="369" cy="287" r="18" fill="#E4EAF6"/>
  <circle cx="369" cy="151" r="25" stroke="#657087" stroke-opacity="0.12" stroke-width="8"/>
  <circle cx="369" cy="219" r="25" stroke="#657087" stroke-opacity="0.12" stroke-width="8"/>
  <circle cx="369" cy="287" r="25" stroke="#657087" stroke-opacity="0.12" stroke-width="8"/>

  <path d="M161 277C184 262 203 252 226 244" stroke="#3E4658" stroke-width="34" stroke-linecap="round"/>
  <path d="M167 333C190 343 219 346 251 340" stroke="#3E4658" stroke-width="34" stroke-linecap="round"/>
  <circle cx="229" cy="244" r="18" fill="#556073"/>
  <circle cx="251" cy="340" r="18" fill="#556073"/>

  <path d="M104 414H406" stroke="#C8CEDA" stroke-width="18" stroke-linecap="round"/>
</svg>
